<?xml version="1.0" encoding="UTF-8"?>
<svg xmlns="http://www.w3.org/2000/svg" viewBox="0 0 406.53 117.68">
  <defs>
    <style>
      .cls-1 {
        fill: #4e6d6d;
        stroke-width: 0px;
      }

      .cls-2 {
        mix-blend-mode: lighten;
      }

      .cls-3 {
        isolation: isolate;
      }
    </style>
  </defs>
  <g class="cls-3">
    <g id="Layer_2" data-name="Layer 2">
      <g id="Isolation_Mode" data-name="Isolation Mode">
        <g>
          <g>
            <path class="cls-1" d="M76.92,95.72v-.07h2.5l4.96,7.84,5.07-7.84h2.5v.07l-6.52,9.75v6.71h-2.12v-6.71l-6.4-9.75Z"/>
            <path class="cls-1" d="M93.51,101.97c1.14-1.14,2.58-1.71,4.33-1.71s3.23.57,4.37,1.7,1.7,2.61,1.7,4.41-.57,3.21-1.71,4.33c-1.14,1.13-2.59,1.69-4.36,1.69s-3.19-.56-4.33-1.69c-1.14-1.12-1.71-2.57-1.71-4.33s.57-3.26,1.71-4.4ZM100.81,103.24c-.79-.81-1.77-1.22-2.95-1.22s-2.18.4-2.96,1.2c-.78.8-1.17,1.85-1.17,3.14s.39,2.24,1.16,3.02c.77.79,1.75,1.18,2.95,1.18s2.18-.39,2.96-1.18c.78-.79,1.18-1.79,1.19-3.02,0-1.27-.39-2.32-1.18-3.13Z"/>
            <path class="cls-1" d="M116.83,112.18l-.09-1.87c-.99,1.34-2.34,2.02-4.06,2.05-1.51,0-2.74-.48-3.67-1.45-.94-.97-1.4-2.29-1.4-3.95v-6.45h1.94v6.42c0,1.13.32,2.02.94,2.67.63.65,1.5.97,2.6.97,1.05-.02,1.92-.39,2.58-1.11.67-.72,1-1.62,1-2.69v-6.26h1.94v11.66h-1.79.02Z"/>
            <path class="cls-1" d="M125.03,100.49l.14,1.75c.69-1.29,1.89-1.94,3.59-1.94,1.02-.03,1.93.26,2.72.87l-.87,1.65c-.61-.43-1.29-.64-2.03-.64-.96.02-1.77.34-2.43.98-.66.64-.99,1.47-.99,2.51v6.49h-1.94v-11.66h1.79l.02-.02Z"/>
            <path class="cls-1" d="M148.97,112.44c-2.75,0-4.88-.82-6.36-2.44-1.49-1.63-2.24-3.62-2.25-5.98-.02-1.51.28-2.9.9-4.18.61-1.27,1.59-2.33,2.93-3.17,1.34-.84,2.94-1.26,4.79-1.26,2.34,0,4.36.83,6.04,2.48l-1.42,1.32c-1.24-1.23-2.79-1.84-4.63-1.84-2.11,0-3.73.65-4.88,1.94-1.14,1.29-1.7,2.86-1.69,4.7.03,1.83.61,3.36,1.72,4.62s2.73,1.88,4.84,1.88c1.86,0,3.42-.64,4.7-1.91l1.44,1.42c-1.65,1.64-3.7,2.46-6.14,2.46Z"/>
            <path class="cls-1" d="M159.43,101.97c1.14-1.14,2.58-1.71,4.33-1.71s3.23.57,4.37,1.7,1.7,2.61,1.7,4.41-.57,3.21-1.71,4.33c-1.14,1.13-2.59,1.69-4.36,1.69s-3.19-.56-4.33-1.69c-1.14-1.12-1.71-2.57-1.71-4.33s.57-3.26,1.71-4.4ZM166.73,103.24c-.79-.81-1.77-1.22-2.95-1.22s-2.18.4-2.96,1.2c-.78.8-1.17,1.85-1.17,3.14s.39,2.24,1.16,3.02c.77.79,1.75,1.18,2.95,1.18s2.18-.39,2.96-1.18c.78-.79,1.18-1.79,1.19-3.02,0-1.27-.39-2.32-1.18-3.13Z"/>
            <path class="cls-1" d="M181.99,104.48v1.84h-8.45v-1.84h8.45Z"/>
            <path class="cls-1" d="M188.91,112.18h-2.03v-16.53h7.51c1.04,0,1.97.2,2.79.61.82.41,1.44.94,1.87,1.6.43.66.74,1.39.93,2.19.2.79.2,1.59,0,2.38-.2.79-.51,1.52-.93,2.17-.43.65-1.05,1.19-1.87,1.61-.82.42-1.75.63-2.79.63h-5.48v5.33ZM196.41,104.39c.58-.36.99-.82,1.24-1.37.25-.55.38-1.14.38-1.77s-.12-1.22-.38-1.77c-.25-.55-.66-1.01-1.24-1.37-.57-.36-1.25-.54-2.02-.54h-5.48v7.37h5.48c.77,0,1.44-.18,2.02-.54Z"/>
            <path class="cls-1" d="M204.03,95.83c.43-.21.85-.21,1.28.01s.64.6.64,1.13-.21.91-.64,1.12-.85.21-1.28-.01c-.42-.22-.64-.6-.64-1.13s.21-.91.64-1.12ZM203.68,112.18h1.94v-11.71h-1.94v11.71Z"/>
            <path class="cls-1" d="M212.3,112.18h-1.94v-16.53h1.94v16.53Z"/>
            <path class="cls-1" d="M218,101.97c1.14-1.14,2.58-1.71,4.33-1.71s3.23.57,4.37,1.7,1.7,2.61,1.7,4.41-.57,3.21-1.71,4.33c-1.14,1.13-2.59,1.69-4.36,1.69s-3.19-.56-4.33-1.69c-1.14-1.12-1.71-2.57-1.71-4.33s.57-3.26,1.71-4.4ZM225.31,103.24c-.79-.81-1.77-1.22-2.95-1.22s-2.18.4-2.96,1.2c-.78.8-1.17,1.85-1.17,3.14s.39,2.24,1.16,3.02c.77.79,1.76,1.18,2.95,1.18s2.18-.39,2.96-1.18c.78-.79,1.18-1.79,1.19-3.02,0-1.27-.39-2.32-1.18-3.13Z"/>
            <path class="cls-1" d="M235.27,100.54h3.61v1.65h-3.64v6.16c0,1.5.61,2.24,1.84,2.24.52,0,1.06-.14,1.63-.42l.57,1.61c-.79.36-1.54.55-2.27.57-2.46.05-3.68-1.28-3.68-3.99v-6.16h-2.34v-1.65h2.34v-3.21l1.94-.21v3.42Z"/>
            <path class="cls-1" d="M249.9,95.83c.43-.21.85-.21,1.28.01s.64.6.64,1.13-.21.91-.64,1.12-.85.21-1.28-.01c-.42-.22-.64-.6-.64-1.13s.21-.91.64-1.12ZM249.54,112.18h1.94v-11.71h-1.94v11.71Z"/>
            <path class="cls-1" d="M256.09,100.49h1.77l.1,1.87c.99-1.35,2.32-2.03,3.99-2.03,1.51,0,2.74.49,3.69,1.45.95.97,1.43,2.29,1.43,3.95v6.44h-1.94v-6.42c0-1.13-.32-2.02-.94-2.67-.63-.65-1.5-.97-2.6-.97-1.05.01-1.92.39-2.58,1.11-.67.72-1,1.62-1,2.69v6.26h-1.91v-11.69Z"/>
            <path class="cls-1" d="M279.04,95.65h2.05v16.53h-2.05v-16.53Z"/>
            <path class="cls-1" d="M284.76,97.49v-1.84h13.32v1.84h-5.64v14.69h-2.03v-14.69h-5.64Z"/>
            <path class="cls-1" d="M317.76,110.59c-1.25,1.27-2.92,1.9-4.99,1.9s-3.66-.62-4.93-1.85c-1.27-1.24-1.91-2.89-1.91-4.97h2.03c0,1.5.44,2.68,1.31,3.57.87.88,2.04,1.32,3.51,1.32s2.63-.45,3.5-1.36c.86-.91,1.3-2.11,1.3-3.62v-8.03h-5.78v-1.89h7.82v9.92c.03,2.08-.58,3.75-1.83,5.02Z"/>
            <path class="cls-1" d="M325.09,101.97c1.14-1.14,2.58-1.71,4.33-1.71s3.23.57,4.37,1.7,1.7,2.61,1.7,4.41-.57,3.21-1.71,4.33c-1.14,1.13-2.59,1.69-4.36,1.69s-3.19-.56-4.33-1.69c-1.14-1.12-1.71-2.57-1.71-4.33s.57-3.26,1.71-4.4ZM332.39,103.24c-.79-.81-1.77-1.22-2.95-1.22s-2.18.4-2.96,1.2c-.78.8-1.17,1.85-1.17,3.14s.39,2.24,1.16,3.02c.77.79,1.76,1.18,2.95,1.18s2.18-.39,2.96-1.18c.78-.79,1.18-1.79,1.19-3.02,0-1.27-.39-2.32-1.18-3.13Z"/>
            <path class="cls-1" d="M348.41,112.18l-.09-1.87c-.99,1.34-2.34,2.02-4.06,2.05-1.51,0-2.74-.48-3.67-1.45-.94-.97-1.4-2.29-1.4-3.95v-6.45h1.94v6.42c0,1.13.31,2.02.94,2.67.63.65,1.5.97,2.6.97,1.05-.02,1.92-.39,2.58-1.11.67-.72,1-1.62,1-2.69v-6.26h1.94v11.66h-1.8.02Z"/>
            <path class="cls-1" d="M356.6,100.49l.14,1.75c.69-1.29,1.89-1.94,3.59-1.94,1.02-.03,1.93.26,2.72.87l-.87,1.65c-.61-.43-1.29-.64-2.03-.64-.96.02-1.77.34-2.43.98-.66.64-.99,1.47-.99,2.51v6.49h-1.94v-11.66h1.79l.02-.02Z"/>
            <path class="cls-1" d="M365.96,100.49h1.77l.1,1.87c.99-1.35,2.32-2.03,3.99-2.03,1.51,0,2.74.49,3.69,1.45.95.97,1.43,2.29,1.43,3.95v6.44h-1.94v-6.42c0-1.13-.32-2.02-.94-2.67-.63-.65-1.5-.97-2.6-.97-1.05.01-1.92.39-2.58,1.11-.67.72-1,1.62-1,2.69v6.26h-1.91v-11.69Z"/>
            <path class="cls-1" d="M391.81,110.31c-.57.68-1.31,1.19-2.22,1.55-.91.35-1.85.53-2.81.53-1.83,0-3.31-.55-4.44-1.66-1.13-1.11-1.7-2.59-1.7-4.43s.57-3.21,1.7-4.34,2.58-1.7,4.34-1.7c1.89,0,3.39.59,4.5,1.76,1.11,1.17,1.55,2.87,1.33,5.09h-9.92c.11,1.05.56,1.9,1.35,2.54s1.75.96,2.88.96c.69,0,1.39-.13,2.09-.39s1.24-.62,1.62-1.07l1.3,1.18h-.02ZM390.68,105.5c-.05-1.12-.42-1.98-1.13-2.58-.71-.61-1.64-.91-2.81-.91-1.05,0-1.97.31-2.74.92-.77.61-1.23,1.46-1.39,2.55h8.07v.02Z"/>
            <path class="cls-1" d="M399.16,117.68h-2.08l2.43-5.67-4.7-11.5h2.2l2.29,6.07,1.28,3.33,1.25-3.31,2.57-6.09h2.12l-7.37,17.16Z"/>
          </g>
          <g>
            <path class="cls-1" d="M144.78,66.65h-9.52l-7.39-18.69-6.29-18.78-6.2,18.95-7.22,18.52h-9.52L76.8,7.18h12.58l14.02,42.91,14.44-42.91h7.31l14.87,42.91,13.59-42.91h12.58l-21.41,59.48Z"/>
            <path class="cls-1" d="M217.42,66.65h-44.52V7.18h44.52v10.88h-33.39v13.68h32.2v10.45h-32.2v13.43h33.39v11.05Z"/>
            <path class="cls-1" d="M274.42,24.42c0,4.59-2.21,9.01-7.73,11.47,6.97,2.12,9.52,9.52,9.52,13.25,0,13.26-9.94,17.5-22.26,17.5h-28.21V7.18h28.21c11.72,0,20.48,5.27,20.48,17.25ZM236.78,31.05h17.16c7.05,0,9.35-2.97,9.35-6.37,0-2.72-2.21-7.31-9.35-7.31h-17.16v13.68ZM236.78,56.2h17.16c4.59,0,11.13-1.53,11.13-7.14s-6.54-8.16-11.13-8.16h-17.16v15.29Z"/>
            <path class="cls-1" d="M335.94,23.57l-19.37,25.83h-2.21l-18.95-25.92v43.25h-11.22V7.26h12.92l18.61,25.58,18.61-25.58h12.83v59.48h-11.22V23.57Z"/>
            <path class="cls-1" d="M402.04,66.65h-44.52V7.18h44.52v10.88h-33.39v13.68h32.2v10.45h-32.2v13.43h33.39v11.05Z"/>
          </g>
          <g>
            <g>
              <path class="cls-1" d="M0,41.03l45.24,6.75-13.21,14.9c-2.63,16.97-5.27,33.95-7.9,50.92C16.08,89.41,8.04,65.22,0,41.03ZM23.21,104.19l6.11-42.76,10.28-11.6-35.48-5.3,19.09,59.66Z"/>
              <g>
                <path class="cls-1" d="M25.64,38.97l-3.77-1.91-14.33-1.67-5.21-7.9v-.03s-1.1-11.32-1.1-11.32l.03-.04L11.9,2.69h.04S21.37.26,21.37.26h.03s12.44,2.68,12.44,2.68l.02.02,8.4,6.44-.91,6.69,2.57,11.63-6.34,8.12-11.95,3.14ZM7.68,35.17l14.26,1.66h.02s3.71,1.89,3.71,1.89l11.78-3.1,6.22-7.96-2.55-11.56.89-6.59-8.27-6.34L21.37.51l-9.34,2.39L1.47,16.21l1.09,11.2,5.11,7.76Z"/>
                <path class="cls-1" d="M43.84,27.58c-2.06-1-4.98-2.5-7.79-3.95-2.82-1.45-5.73-2.95-7.79-3.95l-.09-.05-1.63,2.42.21-4.59.48-8.96v-.04S21.4.22,21.4.22c-.03,0-.06,0-.09.01l-5.63,12.81-3.67-10.46s-.07.02-.11.03l-4.91,15.09-5.86-1.71s-.03.06-.04.1l4.88,4.77-1.02,3.14,2.62,11.62s.03,0,.05.01l3.58-9.67,7.87,7.69,2.44-3.64,4.17,9.16s.06,0,.09,0l.72-15.66,17.32,4.31c.01-.08.03-.15.06-.23h0ZM11.97,3.17l3.6,10.27-2.26,6.1-6.09-1.77L11.97,3.17ZM1.77,16.42l5.14,1.5-.87,2.68-4.27-4.18ZM7.63,34.86l-2.45-10.86.96-2.96,4.84,4.74-3.36,9.09ZM11.09,25.53l-4.85-4.74.91-2.8,6.08,1.77-2.14,5.77ZM19.01,33.28l-7.74-7.56,2.18-5.89,6.94,2.02-.87,3.83,1.85,4.07-2.37,3.53ZM19.77,25.65l.9-3.97-7.14-2.08,2.17-5.86,6.19,7.39,2.76,1.91,1.04.27-4.16,6.21-1.76-3.86ZM25.55,38.34l-3.9-8.57,4.29-6.4.29.07-.68,14.9ZM26.25,23.2l-.16-.04.17-.26v.3ZM26.28,22.44l-.44.66-1.07-.27-2.7-1.87-6.3-7.53L21.39.63l5.59,7.91-.48,8.92-.23,4.98ZM26.48,23.26l.03-.74,1.73-2.58c2.06,1,4.92,2.47,7.69,3.9,2.38,1.23,4.83,2.49,6.78,3.46l-16.24-4.04Z"/>
                <path class="cls-1" d="M42.45,9.42s0-.01,0-.02l-5.61-1.24-3.02-5.29-4.46,3.64L11.99,2.68l-.05.23,17.19,3.79-2.09,1.71.15.19,2.24-1.83,7.26,1.6,1.67,2.93c-3.97,2.09-7.94,4.17-11.91,6.26.04.06.07.11.11.17,4.95-.51,9.91-1.02,14.86-1.53-.91-1.6-1.83-3.2-2.74-4.8l3.77-1.98ZM29.66,6.58l4.09-3.34,2.77,4.86-6.86-1.52ZM37,8.44l4.79,1.06-3.22,1.69-1.57-2.75ZM41.03,15.99l-13.81,1.43,11.25-5.91,2.56,4.49Z"/>
                <path class="cls-1" d="M26.74,17.48l-.22.09,4.97,12.62-5.89,8.52-17.31-3.42,10.69-1.7c1.01,1.23,2.03,2.46,3.04,3.69l.06-.03c-.77-3.87-1.55-7.74-2.32-11.61-.08.02-.16.03-.23.05l2.16,10.82-2.61-3.17-11.81,1.88s.03.09.05.13l18.39,3.63,6.05-8.76-5.02-12.74Z"/>
                <rect class="cls-1" x="17.23" y="13.36" width=".24" height="20.24" transform="translate(-3.66 3.21) rotate(-9.57)"/>
                <path class="cls-1" d="M21.61,37.11c1.65-2.03,3.31-4.07,4.96-6.1-.83-4.78-1.66-9.56-2.49-14.34l-8.14-2.94,4.77,8.09-9.42,4.02-8.82,1.73-.05-.23,8.8-1.72,9.14-3.91-4.97-8.43,8.64,3.12L21.25.41l.23-.06,5.33,17.31-2.47-.89,2.47,14.2,4.41,1.91,3.61-1.53-6.7-11.54,12.23.36-.91,2.4,4.54,5.17-8.81,3.73,2.62,4.52-6.58-2.85c-3.18,1.34-6.36,2.69-9.54,4.03-.03-.02-.05-.03-.08-.05ZM26.74,31.19l-4.44,5.46,8.62-3.65-4.18-1.81ZM31.53,33l5.7,2.47-2.27-3.92-3.43,1.45ZM28.56,20.05l6.5,11.2,8.53-3.61-4.41-5.03.84-2.22-11.46-.34ZM24.29,16.49l2.15.78-4.63-15.04,2.48,14.27Z"/>
              </g>
            </g>
            <g>
              <g class="cls-2">
                <circle class="cls-1" cx="26.63" cy="17.46" r=".51"/>
              </g>
              <g class="cls-2">
                <circle class="cls-1" cx="28.24" cy="19.83" r=".51"/>
              </g>
              <g class="cls-2">
                <circle class="cls-1" cx="20.54" cy="21.77" r=".51"/>
              </g>
              <g class="cls-2">
                <circle class="cls-1" cx="25.65" cy="38.84" r=".51"/>
              </g>
              <g class="cls-2">
                <circle class="cls-1" cx="43.66" cy="27.69" r=".51"/>
              </g>
              <g class="cls-2">
                <circle class="cls-1" cx="37.51" cy="35.73" r=".51"/>
              </g>
              <g class="cls-2">
                <circle class="cls-1" cx="15.67" cy="13.5" r=".55"/>
              </g>
              <g class="cls-2">
                <circle class="cls-1" cx="24.72" cy="22.94" r=".54"/>
              </g>
              <g class="cls-2">
                <circle class="cls-1" cx="42.18" cy="9.27" r=".54"/>
              </g>
              <g class="cls-2">
                <circle class="cls-1" cx="41.29" cy="15.88" r=".54"/>
              </g>
              <g class="cls-2">
                <circle class="cls-1" cx="33.68" cy="3.03" r=".54"/>
              </g>
              <g class="cls-2">
                <circle class="cls-1" cx="27.21" cy="8.51" r=".54"/>
              </g>
              <g class="cls-2">
                <circle class="cls-1" cx="11.94" cy="2.87" r=".54"/>
              </g>
              <g class="cls-2">
                <circle class="cls-1" cx="21.24" cy=".54" r=".54"/>
              </g>
              <g class="cls-2">
                <circle class="cls-1" cx="19.74" cy="25.43" r=".54"/>
              </g>
              <g class="cls-2">
                <circle class="cls-1" cx="7.76" cy="35.21" r=".54"/>
              </g>
              <g class="cls-2">
                <circle class="cls-1" cx="18.75" cy="33.4" r=".54"/>
              </g>
              <g class="cls-2">
                <circle class="cls-1" cx="21.73" cy="36.88" r=".54"/>
              </g>
              <g class="cls-2">
                <circle class="cls-1" cx="26.71" cy="30.91" r=".54"/>
              </g>
              <g class="cls-2">
                <circle class="cls-1" cx="5.31" cy="23.94" r=".54"/>
              </g>
              <g class="cls-2">
                <circle class="cls-1" cx="1.33" cy="16.42" r=".54"/>
              </g>
              <g class="cls-2">
                <circle class="cls-1" cx="2.32" cy="27.42" r=".54"/>
              </g>
              <g class="cls-2">
                <circle class="cls-1" cx="31.69" cy="29.91" r=".54"/>
              </g>
              <g class="cls-2">
                <circle class="cls-1" cx="39.2" cy="22.45" r=".54"/>
              </g>
              <g class="cls-2">
                <circle class="cls-1" cx="40.15" cy="20.24" r=".54"/>
              </g>
              <g class="cls-2">
                <circle class="cls-1" cx="22.01" cy="21.05" r=".54"/>
              </g>
            </g>
          </g>
        </g>
      </g>
    </g>
  </g>
</svg>