<?xml version="1.0" encoding="UTF-8"?>
<svg xmlns="http://www.w3.org/2000/svg" xmlns:xlink="http://www.w3.org/1999/xlink" viewBox="0 0 521.35 1309.49">
  <defs>
    <style>
      .cls-1 {
        filter: url(#drop-shadow-2);
      }

      .cls-2 {
        filter: url(#drop-shadow-1);
      }

      .cls-3 {
        mix-blend-mode: lighten;
      }

      .cls-3, .cls-4 {
        fill: #2f3836;
        stroke-width: 0px;
      }

      .cls-5 {
        isolation: isolate;
      }
    </style>
    <filter id="drop-shadow-1" filterUnits="userSpaceOnUse">
      <feOffset dx="0" dy="0"/>
      <feGaussianBlur result="blur" stdDeviation="4.44"/>
      <feFlood flood-color="#2f3836" flood-opacity="1"/>
      <feComposite in2="blur" operator="in"/>
      <feComposite in="SourceGraphic"/>
    </filter>
    <filter id="drop-shadow-2" filterUnits="userSpaceOnUse">
      <feOffset dx="0" dy="0"/>
      <feGaussianBlur result="blur-2" stdDeviation="4.44"/>
      <feFlood flood-color="#2f3836" flood-opacity="1"/>
      <feComposite in2="blur-2" operator="in"/>
      <feComposite in="SourceGraphic"/>
    </filter>
  </defs>
  <g class="cls-5">
    <g id="Layer_2" data-name="Layer 2">
      <g id="Isolation_Mode" data-name="Isolation Mode">
        <g>
          <g>
            <path class="cls-4" d="M0,473.1l521.35,77.81-152.24,171.76c-30.36,195.61-60.73,391.21-91.09,586.82C185.35,1030.7,92.67,751.9,0,473.1ZM267.51,1201l70.4-492.77,118.51-133.71-408.91-61.03,220,687.51Z"/>
            <g>
              <path class="cls-4" d="M295.44,449.37l-43.43-22-165.15-19.22-60.02-91.05-.03-.34-12.7-130.51.35-.44L137.09,31.24l.45-.11L246.24,3.3l.32.07,143.35,30.78.25.19,96.83,74.25-10.46,77.09,29.61,133.98-73.01,93.54-137.69,36.17ZM88.45,405.57l164.36,19.13.22.11,42.72,21.64,135.77-35.68,71.64-91.78-29.44-133.2,10.31-75.99-95.32-73.09L246.29,6.12l-107.62,27.55L16.95,187.11l12.56,129.06,58.94,89.41Z"/>
              <path class="cls-4" d="M505.25,318.08c-23.8-11.5-57.35-28.8-89.8-45.53-32.44-16.73-65.99-34.03-89.81-45.54l-1.08-.52-18.74,27.94,2.42-52.84,5.53-103.21.03-.48L246.57,2.75c-.33.06-.67.12-1.01.16l-64.86,147.58-42.25-120.59c-.42.15-.86.28-1.3.4l-56.6,173.9-67.57-19.68c-.16.38-.33.74-.52,1.11l56.24,54.98-11.77,36.17,30.18,133.92c.19.04.37.1.55.15l41.23-111.4,90.65,88.61,28.16-42,48.09,105.62c.33-.05.67-.09,1.02-.11l8.25-180.43,199.56,49.62c.16-.9.38-1.78.68-2.63l-.05-.03ZM137.93,36.76l41.45,118.31-26.03,70.33-70.16-20.44,54.74-168.2ZM20.43,189.55l59.26,17.26-10.04,30.85-49.22-48.12ZM87.98,402.02l-28.19-125.13,11.11-34.15,55.83,54.58-38.75,104.7ZM127.78,294.49l-55.93-54.67,10.49-32.23,70.05,20.41-24.61,66.5ZM219.09,383.76l-89.15-87.16,25.1-67.83,79.99,23.3-10.04,44.09,21.37,46.93-27.27,40.66ZM227.89,295.87l10.41-45.72-82.29-23.97,25.01-67.57,71.3,85.14,31.79,22.06,12.02,3.08-47.96,71.51-20.28-44.54ZM294.48,442.13l-44.97-98.78,49.46-73.75,3.36.84-7.85,171.69ZM302.46,267.63l-1.86-.46,2.01-3-.16,3.46ZM302.86,258.85l-5.1,7.61-12.29-3.06-31.17-21.56-72.62-86.73L246.55,7.5l64.44,91.21-5.5,102.75-2.63,57.39ZM305.19,268.31l.39-8.56,19.94-29.73c23.71,11.49,56.73,28.51,88.67,44.99,27.46,14.16,55.71,28.73,78.19,39.85l-187.19-46.55Z"/>
              <path class="cls-4" d="M489.25,108.79c-.01-.06-.03-.13-.04-.19l-64.69-14.28-34.82-60.99-51.35,41.97L138.18,31.11l-.59,2.69,198.05,43.72-24.12,19.72,1.74,2.14,25.81-21.09,83.67,18.47,19.27,33.75c-45.74,24.03-91.47,48.07-137.21,72.1.43.66.86,1.31,1.29,1.97,57.09-5.89,114.19-11.79,171.28-17.68-10.52-18.43-21.04-36.85-31.56-55.28l43.43-22.83ZM341.79,76.05l47.14-38.53,31.96,55.99-79.1-17.46ZM426.37,97.55l55.17,12.18-37.09,19.49-18.08-31.67ZM472.88,184.58l-159.13,16.43,129.62-68.12,29.51,51.69Z"/>
              <path class="cls-4" d="M308.11,201.72l-2.57,1.01,57.29,145.44-67.86,98.21-199.46-39.37,123.24-19.62c11.68,14.17,23.37,28.34,35.05,42.51.24-.13.47-.25.71-.38-8.9-44.59-17.81-89.18-26.71-133.76-.9.18-1.8.36-2.7.54l24.89,124.64-30.1-36.51-136.13,21.68c.22.5.4,1,.57,1.52l211.9,41.82,69.72-100.9-57.82-146.81Z"/>
              <rect class="cls-4" x="198.55" y="154.28" width="2.75" height="233.24" transform="translate(-42.25 37.01) rotate(-9.57)"/>
              <path class="cls-4" d="M249.04,427.99c19.07-23.44,38.14-46.88,57.21-70.33-9.58-55.1-19.16-110.19-28.75-165.29l-93.83-33.88,54.98,93.26-108.54,46.32-101.67,19.9-.53-2.7,101.39-19.82,105.38-45.01-57.27-97.15,99.55,35.95L244.91,4.95l2.67-.64,61.41,199.45-28.5-10.29,28.46,163.62,50.87,22.02,41.62-17.61-77.18-133.01,140.94,4.17-10.52,27.63,52.27,59.58-101.55,42.96,30.23,52.1-75.81-32.81c-36.63,15.5-73.26,30.99-109.89,46.49-.29-.2-.58-.4-.88-.59ZM308.12,359.73l-51.15,62.88,99.33-42.02-48.18-20.85ZM363.32,380.61l65.71,28.44-26.2-45.16-39.51,16.72ZM329.13,231.38l74.87,129.03,98.36-41.61-50.85-57.96,9.74-25.56-132.11-3.91ZM279.95,190.33l24.78,8.95L251.36,25.92l28.59,164.41Z"/>
            </g>
          </g>
          <g class="cls-2">
            <circle class="cls-4" cx="15.53" cy="186.69" r="4.71"/>
            <circle class="cls-3" cx="226.44" cy="296.02" r="4.04"/>
            <circle class="cls-4" cx="129.27" cy="296.02" r="4.71"/>
            <circle class="cls-4" cx="28.18" cy="316.64" r="4.71"/>
            <circle class="cls-4" cx="87.66" cy="406.87" r="4.71"/>
            <circle class="cls-4" cx="252.41" cy="426.04" r="4.71"/>
            <circle class="cls-4" cx="219.31" cy="385.9" r="4.71"/>
            <circle class="cls-4" cx="137.89" cy="32.46" r="4.71"/>
            <circle class="cls-4" cx="246.27" cy="4.71" r="4.71"/>
            <circle class="cls-4" cx="389.31" cy="35.42" r="4.71"/>
            <circle class="cls-4" cx="453.09" cy="260.56" r="4.71"/>
            <circle class="cls-4" cx="307.71" cy="358.05" r="4.71"/>
            <circle class="cls-4" cx="485.51" cy="109.19" r="4.71"/>
            <circle class="cls-4" cx="475.13" cy="185.74" r="4.71"/>
            <circle class="cls-4" cx="312.39" cy="98.3" r="4.71"/>
            <circle class="cls-4" cx="306.86" cy="201.52" r="5.89"/>
            <circle class="cls-4" cx="236.66" cy="251.11" r="5.89"/>
            <circle class="cls-4" cx="295.59" cy="447.91" r="5.89"/>
            <circle class="cls-4" cx="504.65" cy="319.32" r="5.89"/>
            <circle class="cls-4" cx="432.32" cy="411.98" r="5.89"/>
            <circle class="cls-4" cx="180.54" cy="155.9" r="6.28"/>
            <circle class="cls-4" cx="253.36" cy="242.87" r="5.36"/>
            <circle class="cls-4" cx="58.11" cy="275.89" r="2.84"/>
            <circle class="cls-4" cx="284.89" cy="264.68" r="6.27"/>
            <circle class="cls-4" cx="325.04" cy="228.25" r="3.85"/>
            <circle class="cls-4" cx="463.22" cy="233.97" r="2.43"/>
          </g>
          <g class="cls-1">
            <circle class="cls-4" cx="15.53" cy="186.69" r="4.71"/>
            <circle class="cls-3" cx="226.44" cy="296.02" r="4.04"/>
            <circle class="cls-4" cx="129.27" cy="296.02" r="4.71"/>
            <circle class="cls-4" cx="28.18" cy="316.64" r="4.71"/>
            <circle class="cls-4" cx="87.66" cy="406.87" r="4.71"/>
            <circle class="cls-4" cx="252.41" cy="426.04" r="4.71"/>
            <circle class="cls-4" cx="219.31" cy="385.9" r="4.71"/>
            <circle class="cls-4" cx="137.89" cy="32.46" r="4.71"/>
            <circle class="cls-4" cx="246.27" cy="4.71" r="4.71"/>
            <circle class="cls-4" cx="389.31" cy="35.42" r="4.71"/>
            <circle class="cls-4" cx="453.09" cy="260.56" r="4.71"/>
            <circle class="cls-4" cx="307.71" cy="358.05" r="4.71"/>
            <circle class="cls-4" cx="485.51" cy="109.19" r="4.71"/>
            <circle class="cls-4" cx="475.13" cy="185.74" r="4.71"/>
            <circle class="cls-4" cx="312.39" cy="98.3" r="4.71"/>
            <circle class="cls-4" cx="306.86" cy="201.52" r="5.89"/>
            <circle class="cls-4" cx="236.66" cy="251.11" r="5.89"/>
            <circle class="cls-4" cx="295.59" cy="447.91" r="5.89"/>
            <circle class="cls-4" cx="504.65" cy="319.32" r="5.89"/>
            <circle class="cls-4" cx="432.32" cy="411.98" r="5.89"/>
            <circle class="cls-4" cx="180.54" cy="155.9" r="6.28"/>
            <circle class="cls-4" cx="253.36" cy="242.87" r="5.36"/>
            <circle class="cls-4" cx="58.11" cy="275.89" r="2.84"/>
            <circle class="cls-4" cx="284.89" cy="264.68" r="6.27"/>
            <circle class="cls-4" cx="325.04" cy="228.25" r="3.85"/>
            <circle class="cls-4" cx="463.22" cy="233.97" r="2.43"/>
          </g>
        </g>
      </g>
    </g>
  </g>
</svg>