<svg width="20" height="20" viewBox="0 0 20 20" fill="none" xmlns="http://www.w3.org/2000/svg">
<path fill-rule="evenodd" clip-rule="evenodd" d="M15.2895 4.9693C15.6748 5.2213 15.7828 5.7373 15.5308 6.12264L9.86412 14.7893C9.7981 14.8903 9.71094 14.9757 9.60866 15.0397C9.50638 15.1037 9.39142 15.1447 9.27174 15.1599C9.15205 15.1752 9.03049 15.1642 8.91545 15.1278C8.80042 15.0915 8.69465 15.0306 8.60546 14.9493L4.93879 11.616C4.77524 11.4673 4.67746 11.2597 4.66696 11.0389C4.65646 10.8181 4.73409 10.6022 4.88279 10.4386C5.03149 10.2751 5.23907 10.1773 5.45986 10.1668C5.68065 10.1563 5.89657 10.2339 6.06012 10.3826L9.00412 13.0586L14.1361 5.21064C14.2571 5.02572 14.4465 4.89642 14.6628 4.85117C14.8791 4.80591 15.1045 4.8484 15.2895 4.9693Z" fill="#393939"/>
</svg>
